<?xml version="1.0" standalone="no"?>
<!DOCTYPE svg PUBLIC "-//W3C//DTD SVG 20010904//EN"
 "http://www.w3.org/TR/2001/REC-SVG-20010904/DTD/svg10.dtd">
<svg version="1.0" xmlns="http://www.w3.org/2000/svg"
 width="1024.000000pt" height="1024.000000pt" viewBox="0 0 1024.000000 1024.000000"
 preserveAspectRatio="xMidYMid meet">

<g transform="translate(0.000000,1024.000000) scale(0.100000,-0.100000)"
fill="#000000" stroke="none">
<path d="M4380 8210 l0 -90 95 0 95 0 0 90 0 90 -95 0 -95 0 0 -90z"/>
<path d="M4830 7865 l0 -435 350 0 350 0 0 435 0 435 -350 0 -350 0 0 -435z
m470 0 l0 -185 -120 0 -120 0 0 185 0 185 120 0 120 0 0 -185z"/>
<path d="M5760 8210 l0 -90 90 0 90 0 0 90 0 90 -90 0 -90 0 0 -90z"/>
<path d="M3600 7860 l0 -90 145 0 145 0 0 90 0 90 -145 0 -145 0 0 -90z"/>
<path d="M4030 7860 l0 -90 185 0 185 0 0 90 0 90 -185 0 -185 0 0 -90z"/>
<path d="M4530 7690 l0 -260 75 0 75 0 0 260 0 260 -75 0 -75 0 0 -260z"/>
<path d="M5650 7690 l0 -260 80 0 80 0 0 260 0 260 -80 0 -80 0 0 -260z"/>
<path d="M5940 7860 l0 -90 175 0 175 0 0 90 0 90 -175 0 -175 0 0 -90z"/>
<path d="M6430 7860 l0 -90 170 0 170 0 0 90 0 90 -170 0 -170 0 0 -90z"/>
<path d="M3060 7525 l0 -95 90 0 90 0 0 95 0 95 -90 0 -90 0 0 -95z"/>
<path d="M3390 7525 l0 -95 90 0 90 0 0 95 0 95 -90 0 -90 0 0 -95z"/>
<path d="M3690 7525 l0 -95 90 0 90 0 0 95 0 95 -90 0 -90 0 0 -95z"/>
<path d="M4000 7525 l0 -95 185 0 185 0 0 95 0 95 -185 0 -185 0 0 -95z"/>
<path d="M5910 7525 l0 -95 180 0 180 0 0 95 0 95 -180 0 -180 0 0 -95z"/>
<path d="M6430 7525 l0 -95 90 0 90 0 0 95 0 95 -90 0 -90 0 0 -95z"/>
<path d="M6710 7525 l0 -95 95 0 95 0 0 95 0 95 -95 0 -95 0 0 -95z"/>
<path d="M7030 7525 l0 -95 90 0 90 0 0 95 0 95 -90 0 -90 0 0 -95z"/>
<path d="M2760 6375 l0 -885 50 0 50 0 0 -100 0 -100 55 0 55 0 0 -40 0 -40
60 0 60 0 0 -95 0 -95 -160 0 -160 0 0 -65 0 -65 240 0 240 0 0 160 0 160 70
0 70 0 0 -160 0 -160 85 0 85 0 0 160 0 160 65 0 65 0 0 -165 0 -165 85 0 85
0 0 165 0 165 70 0 70 0 0 -1355 0 -1355 275 0 275 0 0 -180 0 -180 80 0 80 0
0 180 0 180 70 0 70 0 0 -350 0 -350 325 0 325 0 0 350 0 350 75 0 75 0 0
-180 0 -180 80 0 80 0 0 180 0 180 240 0 240 0 0 1355 0 1355 75 0 75 0 0
-160 0 -160 85 0 85 0 0 160 0 160 75 0 75 0 0 -155 0 -155 85 0 85 0 0 155 0
155 55 0 55 0 0 -175 0 -175 240 0 240 0 0 65 0 65 -155 0 -155 0 0 110 0 110
55 0 55 0 0 40 0 40 70 0 70 0 0 100 0 100 30 0 30 0 0 885 0 885 -2380 0
-2380 0 0 -885z m4550 70 l0 -565 -710 0 -710 0 0 -1360 0 -1360 -745 0 -745
0 0 1360 0 1360 -715 0 -715 0 0 565 0 565 2170 0 2170 0 0 -565z m-2020
-4315 l0 -150 -115 0 -115 0 0 150 0 150 115 0 115 0 0 -150z"/>
<path d="M3170 6435 l0 -315 745 0 745 0 0 -1360 0 -1360 480 0 480 0 0 1360
0 1360 745 0 745 0 0 315 0 315 -1970 0 -1970 0 0 -315z m310 195 l0 -80 -80
0 -80 0 0 80 0 80 80 0 80 0 0 -80z m280 0 l0 -80 -80 0 -80 0 0 80 0 80 80 0
80 0 0 -80z m-280 -320 l0 -80 -80 0 -80 0 0 80 0 80 80 0 80 0 0 -80z m280 0
l0 -80 -80 0 -80 0 0 80 0 80 80 0 80 0 0 -80z m290 0 l0 -80 -80 0 -80 0 0
80 0 80 80 0 80 0 0 -80z m290 0 l0 -80 -75 0 -75 0 0 80 0 80 75 0 75 0 0
-80z m290 0 l0 -80 -75 0 -75 0 0 80 0 80 75 0 75 0 0 -80z m590 -555 l0 -75
-80 0 -80 0 0 75 0 75 80 0 80 0 0 -75z m-270 -290 l0 -75 -80 0 -80 0 0 75 0
75 80 0 80 0 0 -75z m540 0 l0 -75 -75 0 -75 0 0 75 0 75 75 0 75 0 0 -75z
m-270 -305 l0 -80 -80 0 -80 0 0 80 0 80 80 0 80 0 0 -80z m0 -350 l0 -80 -80
0 -80 0 0 80 0 80 80 0 80 0 0 -80z m0 -515 l0 -75 -80 0 -80 0 0 75 0 75 80
0 80 0 0 -75z m-270 -315 l0 -80 -80 0 -80 0 0 80 0 80 80 0 80 0 0 -80z m270
0 l0 -80 -80 0 -80 0 0 80 0 80 80 0 80 0 0 -80z m-270 -340 l0 -80 -80 0 -80
0 0 80 0 80 80 0 80 0 0 -80z m270 0 l0 -80 -80 0 -80 0 0 80 0 80 80 0 80 0
0 -80z"/>
<path d="M2240 6980 l0 -110 110 0 110 0 0 110 0 110 -110 0 -110 0 0 -110z"/>
<path d="M7810 6980 l0 -110 105 0 105 0 0 110 0 110 -105 0 -105 0 0 -110z"/>
<path d="M2240 6500 l0 -110 115 0 115 0 0 110 0 110 -115 0 -115 0 0 -110z"/>
<path d="M7810 6500 l0 -110 110 0 110 0 0 110 0 110 -110 0 -110 0 0 -110z"/>
<path d="M2250 6015 l0 -105 110 0 110 0 0 105 0 105 -110 0 -110 0 0 -105z"/>
<path d="M7810 6015 l0 -105 105 0 105 0 0 105 0 105 -105 0 -105 0 0 -105z"/>
<path d="M2270 5595 l0 -105 110 0 110 0 0 50 0 50 70 0 70 0 0 55 0 55 -180
0 -180 0 0 -105z"/>
<path d="M7670 5645 l0 -55 75 0 75 0 0 -50 0 -50 105 0 105 0 0 99 0 98 -82
6 c-46 4 -127 7 -180 7 l-98 0 0 -55z"/>
<path d="M7620 4970 l0 -250 -120 0 -120 0 0 -90 0 -90 410 0 410 0 0 340 0
340 -290 0 -290 0 0 -250z m400 -110 l0 -120 -110 0 -110 0 0 120 0 120 110 0
110 0 0 -120z"/>
<path d="M2100 4870 l0 -340 410 0 410 0 0 90 0 90 -120 0 -120 0 0 250 0 250
-290 0 -290 0 0 -340z m400 -25 l0 -125 -110 0 -110 0 0 125 0 125 110 0 110
0 0 -125z"/>
<path d="M3720 4605 l0 -125 85 0 85 0 0 125 0 125 -85 0 -85 0 0 -125z"/>
<path d="M3100 4595 l0 -125 85 0 85 0 0 125 0 125 -85 0 -85 0 0 -125z"/>
<path d="M3400 4425 l0 -295 85 0 85 0 0 295 0 295 -85 0 -85 0 0 -295z"/>
<path d="M7060 4595 l0 -125 85 0 85 0 0 125 0 125 -85 0 -85 0 0 -125z"/>
<path d="M6440 4585 l0 -125 85 0 85 0 0 125 0 125 -85 0 -85 0 0 -125z"/>
<path d="M6740 4415 l0 -295 85 0 85 0 0 295 0 295 -85 0 -85 0 0 -295z"/>
<path d="M3700 4220 l0 -90 95 0 95 0 0 90 0 90 -95 0 -95 0 0 -90z"/>
<path d="M6440 4220 l0 -90 95 0 95 0 0 90 0 90 -95 0 -95 0 0 -90z"/>
<path d="M7840 4215 l0 -95 95 0 95 0 0 95 0 95 -95 0 -95 0 0 -95z"/>
<path d="M2280 4205 l0 -95 95 0 95 0 0 95 0 95 -95 0 -95 0 0 -95z"/>
<path d="M2760 4033 l0 -263 80 0 80 0 0 185 0 185 85 0 85 0 0 -185 0 -185
75 0 75 0 0 263 0 263 -240 0 -240 1 0 -264z"/>
<path d="M7060 4030 l0 -260 75 0 75 0 0 185 0 185 85 0 85 0 0 -185 0 -185
75 0 75 0 0 260 0 260 -235 0 -235 0 0 -260z"/>
<path d="M3390 3885 l0 -95 95 0 95 0 0 95 0 95 -95 0 -95 0 0 -95z"/>
<path d="M3700 3885 l0 -95 95 0 95 0 0 95 0 95 -95 0 -95 0 0 -95z"/>
<path d="M6440 3875 l0 -95 95 0 95 0 0 95 0 95 -95 0 -95 0 0 -95z"/>
<path d="M6750 3875 l0 -95 95 0 95 0 0 95 0 95 -95 0 -95 0 0 -95z"/>
<path d="M7680 3650 l0 -260 235 0 235 0 0 260 0 260 -235 0 -235 0 0 -260z
m320 -5 l0 -105 -85 0 -85 0 0 105 0 105 85 0 85 0 0 -105z"/>
<path d="M2170 3640 l0 -260 230 0 230 0 0 260 0 260 -230 0 -230 0 0 -260z
m310 -5 l0 -105 -80 0 -80 0 0 105 0 105 80 0 80 0 0 -105z"/>
<path d="M3700 3560 l0 -90 95 0 95 0 0 90 0 90 -95 0 -95 0 0 -90z"/>
<path d="M2760 3380 l0 -260 80 0 80 0 0 170 0 170 165 0 165 0 0 90 0 90
-245 0 -245 0 0 -260z"/>
<path d="M6750 3550 l0 -90 95 0 95 0 0 90 0 90 -95 0 -95 0 0 -90z"/>
<path d="M7070 3550 l0 -90 160 0 160 0 0 -170 0 -170 80 0 80 0 0 260 0 260
-240 0 -240 0 0 -90z"/>
<path d="M3410 3535 l0 -95 95 0 95 0 0 95 0 95 -95 0 -95 0 0 -95z"/>
<path d="M6460 3525 l0 -95 95 0 95 0 0 95 0 95 -95 0 -95 0 0 -95z"/>
<path d="M3090 3210 l0 -90 90 0 90 0 0 90 0 90 -90 0 -90 0 0 -90z"/>
<path d="M3410 3210 l0 -90 95 0 95 0 0 90 0 90 -95 0 -95 0 0 -90z"/>
<path d="M3700 3210 l0 -90 95 0 95 0 0 90 0 90 -95 0 -95 0 0 -90z"/>
<path d="M6460 3205 l0 -95 95 0 95 0 0 95 0 95 -95 0 -95 0 0 -95z"/>
<path d="M6750 3205 l0 -95 95 0 95 0 0 95 0 95 -95 0 -95 0 0 -95z"/>
<path d="M7050 3205 l0 -95 95 0 95 0 0 95 0 95 -95 0 -95 0 0 -95z"/>
<path d="M2290 3065 l0 -95 95 0 95 0 0 95 0 95 -95 0 -95 0 0 -95z"/>
<path d="M7860 3065 l0 -95 95 0 95 0 0 95 0 95 -95 0 -95 0 0 -95z"/>
<path d="M2760 2710 l0 -260 80 0 80 0 0 180 0 180 160 0 160 0 0 80 0 80
-240 0 -240 0 0 -260z"/>
<path d="M3390 2710 l0 -260 75 0 75 0 0 180 0 180 160 0 160 0 0 80 0 80
-235 0 -235 0 0 -260z"/>
<path d="M6460 2890 l0 -80 145 0 145 0 0 -180 0 -180 75 0 75 0 0 260 0 260
-220 0 -220 0 0 -80z"/>
<path d="M7060 2890 l0 -80 160 0 160 0 0 -180 0 -180 75 0 75 0 0 260 0 260
-235 0 -235 0 0 -80z"/>
<path d="M3090 2405 l0 -265 75 0 75 0 0 265 0 265 -75 0 -75 0 0 -265z"/>
<path d="M3700 2575 l0 -95 95 0 95 0 0 95 0 95 -95 0 -95 0 0 -95z"/>
<path d="M6440 2575 l0 -95 95 0 95 0 0 95 0 95 -95 0 -95 0 0 -95z"/>
<path d="M7060 2405 l0 -265 75 0 75 0 0 265 0 265 -75 0 -75 0 0 -265z"/>
<path d="M5960 2240 l0 -90 165 0 165 0 0 90 0 90 -165 0 -165 0 0 -90z"/>
<path d="M3540 2240 l0 -80 160 0 160 0 0 80 0 80 -160 0 -160 0 0 -80z"/>
<path d="M4030 2240 l0 -80 160 0 160 0 0 80 0 80 -160 0 -160 0 0 -80z"/>
<path d="M6440 2230 l0 -90 170 0 170 0 0 90 0 90 -170 0 -170 0 0 -90z"/>
<path d="M4380 1895 l0 -95 95 0 95 0 0 95 0 95 -95 0 -95 0 0 -95z"/>
<path d="M5760 1895 l0 -95 95 0 95 0 0 95 0 95 -95 0 -95 0 0 -95z"/>
</g>
</svg>
